<svg width="79" height="128" viewBox="0 0 79 128" fill="none" xmlns="http://www.w3.org/2000/svg">
<rect width="69" height="26" transform="matrix(-1 0 0 1 74 62)" fill="white"/>
<path d="M65 33C65 30.7909 66.7909 29 69 29C71.2091 29 73 30.7909 73 33V62H65V33Z" fill="white"/>
<path d="M50 19C50 16.2386 52.2386 14 55 14C57.7614 14 60 16.2386 60 19V62H50V19Z" fill="white"/>
<path d="M35 9.5C35 7.01472 37.0147 5 39.5 5C41.9853 5 44 7.01472 44 9.5V62H35V9.5Z" fill="white"/>
<path d="M5 87.5C5 92.2932 5.89237 97.0396 7.62616 101.468C9.35995 105.896 11.9012 109.92 15.1048 113.309C18.3084 116.699 22.1117 119.387 26.2974 121.222C30.4832 123.056 34.9694 124 39.5 124C44.0306 124 48.5168 123.056 52.7026 121.222C56.8883 119.387 60.6916 116.699 63.8952 113.309C67.0988 109.92 69.6401 105.896 71.3738 101.468C73.1076 97.0396 74 92.2932 74 87.5L39.5 87.5H5Z" fill="white"/>
<path d="M5 56.3077C5 55.0332 6.03319 54 7.30769 54C11.556 54 15 57.444 15 61.6923V84H5V56.3077Z" fill="white"/>
<path d="M20 21C20 18.2386 22.2386 16 25 16C27.7614 16 30 18.2386 30 21V62H20V21Z" fill="#FFDB1E"/>
<path d="M79 87V90H73V87H79ZM73 32C73 30.3431 74.3431 29 76 29C77.6569 29 79 30.3431 79 32H73ZM73 87V32H79V87H73Z" fill="#5C5C5C"/>
<path d="M76 87C75.0068 138.42 3 136.908 3 87" stroke="#5C5C5C" stroke-width="6"/>
<path d="M62.4996 60.5L62.4996 18.5" stroke="#5C5C5C" stroke-width="6" stroke-linecap="round"/>
<path d="M47 61L47 11" stroke="#5C5C5C" stroke-width="6" stroke-linecap="round"/>
<path d="M32.0001 61L32.0001 11" stroke="#5C5C5C" stroke-width="6" stroke-linecap="round"/>
<path d="M19.9996 83C19.9996 84.6569 18.6565 86 16.9996 86C15.3428 86 13.9996 84.6569 13.9996 83L19.9996 83ZM13.9996 25L13.9996 22L19.9996 22L19.9996 25L13.9996 25ZM13.9996 83L13.9996 25L19.9996 25L19.9996 83L13.9996 83Z" fill="#5C5C5C"/>
<path d="M3.00024 88L3.00024 58" stroke="#5C5C5C" stroke-width="6" stroke-linecap="square"/>
<path d="M16.9996 60C16.5173 51.6376 2.52949 45.7349 3.01182 58.0325" stroke="#5C5C5C" stroke-width="6"/>
<path d="M62.4996 19.9984C62.4996 8.00009 45.9996 10 46.9996 19.9984" stroke="#5C5C5C" stroke-width="6"/>
<path d="M76 32.9997C76 24.2903 62.5 25 62.5 33.4998" stroke="#5C5C5C" stroke-width="6"/>
<path d="M47 11C47 -0.612565 31.0771 1.32304 32.0422 11" stroke="#5C5C5C" stroke-width="6"/>
<path d="M32.0001 24C32.0001 12.3874 16.0773 14.323 17.0423 24" stroke="#5C5C5C" stroke-width="6"/>
</svg>
