<svg width="79" height="128" viewBox="0 0 79 128" fill="none" xmlns="http://www.w3.org/2000/svg">
<rect x="5" y="62" width="69" height="26" fill="white"/>
<path d="M14 33C14 30.7909 12.2091 29 10 29C7.79086 29 6 30.7909 6 33V62H14V33Z" fill="white"/>
<path d="M44 9.5C44 7.01472 41.9853 5 39.5 5C37.0147 5 35 7.01472 35 9.5V62H44V9.5Z" fill="white"/>
<path d="M59 23.5C59 21.0147 56.9853 19 54.5 19C52.0147 19 50 21.0147 50 23.5V62H59V23.5Z" fill="white"/>
<path d="M74 87.5C74 92.2932 73.1076 97.0396 71.3738 101.468C69.6401 105.896 67.0988 109.92 63.8952 113.309C60.6916 116.699 56.8883 119.387 52.7026 121.222C48.5168 123.056 44.0306 124 39.5 124C34.9694 124 30.4832 123.056 26.2974 121.222C22.1117 119.387 18.3084 116.699 15.1048 113.309C11.9012 109.92 9.35994 105.896 7.62616 101.468C5.89237 97.0396 5 92.2932 5 87.5L39.5 87.5H74Z" fill="white"/>
<path d="M74 56.3079C74 55.0334 72.9668 54.0002 71.6923 54.0002C67.444 54.0002 64 57.4442 64 61.6926V84.0003H74V56.3079Z" fill="white"/>
<path d="M30 18C30 15.2386 27.7614 13 25 13H24C21.2386 13 19 15.2386 19 18V62H30V18Z" fill="#8785DB"/>
<path d="M0 87V90H6V87H0ZM6 32C6 30.3431 4.65685 29 3 29C1.34315 29 0 30.3431 0 32H6ZM6 87L6 32H0L0 87H6Z" fill="#5C5C5C"/>
<path d="M3 87C3.9932 138.42 76 136.908 76 87" stroke="#5C5C5C" stroke-width="6"/>
<path d="M16.5 60.5L16.5 18.5" stroke="#5C5C5C" stroke-width="6" stroke-linecap="round"/>
<path d="M32 61L32 11" stroke="#5C5C5C" stroke-width="6" stroke-linecap="round"/>
<path d="M47 61L47 11" stroke="#5C5C5C" stroke-width="6" stroke-linecap="round"/>
<path d="M59 83C59 84.6569 60.3431 86 62 86C63.6569 86 65 84.6569 65 83L59 83ZM65 25L65 22L59 22L59 25L65 25ZM65 83L65 25L59 25L59 83L65 83Z" fill="#5C5C5C"/>
<path d="M76 88L76 58" stroke="#5C5C5C" stroke-width="6" stroke-linecap="square"/>
<path d="M62 60C62.4823 51.6376 76.4701 45.7349 75.9878 58.0325" stroke="#5C5C5C" stroke-width="6"/>
<path d="M16.5 19.9984C16.5 8.00009 33 10 32 19.9984" stroke="#5C5C5C" stroke-width="6"/>
<path d="M3 32.9997C3 24.2903 16.5 25 16.5 33.4998" stroke="#5C5C5C" stroke-width="6"/>
<path d="M32 11C32 -0.612565 47.9229 1.32304 46.9578 11" stroke="#5C5C5C" stroke-width="6"/>
<path d="M47 24C47 12.3874 62.9229 14.323 61.9578 24" stroke="#5C5C5C" stroke-width="6"/>
</svg>
